<mxfile host="app.diagrams.net" modified="2024-03-14T00:53:39.286Z" agent="Mozilla/5.0 (Windows NT 10.0; Win64; x64) AppleWebKit/537.36 (KHTML, like Gecko) Chrome/122.0.0.0 Safari/537.36" etag="eZAW3Kq4n7vmmQgvoaan" version="24.0.6" type="github">
  <diagram id="yPxyJZ8AM_hMuL3Unpa9" name="gitflow">
    <mxGraphModel dx="1434" dy="818" grid="1" gridSize="10" guides="1" tooltips="1" connect="1" arrows="1" fold="1" page="1" pageScale="1" pageWidth="850" pageHeight="1100" math="0" shadow="0">
      <root>
        <mxCell id="0" />
        <mxCell id="1" parent="0" />
        <mxCell id="BTvp2O8rXc9mUWwI-0S5-177" value="" style="image;aspect=fixed;perimeter=ellipsePerimeter;html=1;align=center;shadow=0;dashed=0;spacingTop=3;image=img/lib/active_directory/web_server.svg;" vertex="1" parent="1">
          <mxGeometry x="390" y="399" width="55" height="68.75" as="geometry" />
        </mxCell>
        <mxCell id="BTvp2O8rXc9mUWwI-0S5-179" value="go 웹서버" style="rounded=0;whiteSpace=wrap;html=1;" vertex="1" parent="1">
          <mxGeometry x="387" y="468.75" width="60" height="20" as="geometry" />
        </mxCell>
        <mxCell id="BTvp2O8rXc9mUWwI-0S5-182" style="edgeStyle=orthogonalEdgeStyle;rounded=0;orthogonalLoop=1;jettySize=auto;html=1;entryX=0;entryY=0.5;entryDx=0;entryDy=0;" edge="1" parent="1" source="BTvp2O8rXc9mUWwI-0S5-180" target="BTvp2O8rXc9mUWwI-0S5-177">
          <mxGeometry relative="1" as="geometry" />
        </mxCell>
        <mxCell id="BTvp2O8rXc9mUWwI-0S5-180" value="" style="outlineConnect=0;dashed=0;verticalLabelPosition=bottom;verticalAlign=top;align=center;html=1;shape=mxgraph.aws3.classic_load_balancer;fillColor=#F58534;gradientColor=none;" vertex="1" parent="1">
          <mxGeometry x="290" y="396.75" width="69" height="72" as="geometry" />
        </mxCell>
        <mxCell id="BTvp2O8rXc9mUWwI-0S5-181" value="로드 밸런서" style="rounded=0;whiteSpace=wrap;html=1;" vertex="1" parent="1">
          <mxGeometry x="282.25" y="480" width="84.5" height="20" as="geometry" />
        </mxCell>
        <mxCell id="BTvp2O8rXc9mUWwI-0S5-183" value="" style="aspect=fixed;sketch=0;html=1;dashed=0;whitespace=wrap;fillColor=#2875E2;strokeColor=#ffffff;points=[[0.005,0.63,0],[0.1,0.2,0],[0.9,0.2,0],[0.5,0,0],[0.995,0.63,0],[0.72,0.99,0],[0.5,1,0],[0.28,0.99,0]];shape=mxgraph.kubernetes.icon2;prIcon=user" vertex="1" parent="1">
          <mxGeometry x="170" y="474.75" width="50" height="48" as="geometry" />
        </mxCell>
        <mxCell id="BTvp2O8rXc9mUWwI-0S5-188" style="edgeStyle=orthogonalEdgeStyle;rounded=0;orthogonalLoop=1;jettySize=auto;html=1;exitX=0.995;exitY=0.63;exitDx=0;exitDy=0;exitPerimeter=0;" edge="1" parent="1" source="BTvp2O8rXc9mUWwI-0S5-184">
          <mxGeometry relative="1" as="geometry">
            <mxPoint x="290" y="430" as="targetPoint" />
          </mxGeometry>
        </mxCell>
        <mxCell id="BTvp2O8rXc9mUWwI-0S5-184" value="" style="aspect=fixed;sketch=0;html=1;dashed=0;whitespace=wrap;fillColor=#2875E2;strokeColor=#ffffff;points=[[0.005,0.63,0],[0.1,0.2,0],[0.9,0.2,0],[0.5,0,0],[0.995,0.63,0],[0.72,0.99,0],[0.5,1,0],[0.28,0.99,0]];shape=mxgraph.kubernetes.icon2;prIcon=user" vertex="1" parent="1">
          <mxGeometry x="170" y="412" width="50" height="48" as="geometry" />
        </mxCell>
        <mxCell id="BTvp2O8rXc9mUWwI-0S5-185" value="" style="aspect=fixed;sketch=0;html=1;dashed=0;whitespace=wrap;fillColor=#2875E2;strokeColor=#ffffff;points=[[0.005,0.63,0],[0.1,0.2,0],[0.9,0.2,0],[0.5,0,0],[0.995,0.63,0],[0.72,0.99,0],[0.5,1,0],[0.28,0.99,0]];shape=mxgraph.kubernetes.icon2;prIcon=user" vertex="1" parent="1">
          <mxGeometry x="170" y="344" width="50" height="48" as="geometry" />
        </mxCell>
        <mxCell id="BTvp2O8rXc9mUWwI-0S5-187" style="edgeStyle=orthogonalEdgeStyle;rounded=0;orthogonalLoop=1;jettySize=auto;html=1;exitX=0.995;exitY=0.63;exitDx=0;exitDy=0;exitPerimeter=0;entryX=0;entryY=0.5;entryDx=0;entryDy=0;entryPerimeter=0;" edge="1" parent="1" source="BTvp2O8rXc9mUWwI-0S5-183" target="BTvp2O8rXc9mUWwI-0S5-180">
          <mxGeometry relative="1" as="geometry" />
        </mxCell>
        <mxCell id="BTvp2O8rXc9mUWwI-0S5-189" style="edgeStyle=orthogonalEdgeStyle;rounded=0;orthogonalLoop=1;jettySize=auto;html=1;exitX=0.995;exitY=0.63;exitDx=0;exitDy=0;exitPerimeter=0;entryX=0;entryY=0.5;entryDx=0;entryDy=0;entryPerimeter=0;" edge="1" parent="1" source="BTvp2O8rXc9mUWwI-0S5-185" target="BTvp2O8rXc9mUWwI-0S5-180">
          <mxGeometry relative="1" as="geometry" />
        </mxCell>
        <mxCell id="BTvp2O8rXc9mUWwI-0S5-195" value="user" style="rounded=0;whiteSpace=wrap;html=1;" vertex="1" parent="1">
          <mxGeometry x="345" y="220" width="70" height="20" as="geometry" />
        </mxCell>
        <mxCell id="BTvp2O8rXc9mUWwI-0S5-205" style="edgeStyle=orthogonalEdgeStyle;rounded=0;orthogonalLoop=1;jettySize=auto;html=1;entryX=0.25;entryY=0;entryDx=0;entryDy=0;" edge="1" parent="1" source="BTvp2O8rXc9mUWwI-0S5-196" target="BTvp2O8rXc9mUWwI-0S5-177">
          <mxGeometry relative="1" as="geometry" />
        </mxCell>
        <mxCell id="BTvp2O8rXc9mUWwI-0S5-196" value="" style="image;aspect=fixed;html=1;points=[];align=center;fontSize=12;image=img/lib/azure2/databases/Azure_Database_PostgreSQL_Server_Group.svg;" vertex="1" parent="1">
          <mxGeometry x="350" y="246" width="60" height="68" as="geometry" />
        </mxCell>
        <mxCell id="BTvp2O8rXc9mUWwI-0S5-206" style="edgeStyle=orthogonalEdgeStyle;rounded=0;orthogonalLoop=1;jettySize=auto;html=1;entryX=0.25;entryY=0;entryDx=0;entryDy=0;" edge="1" parent="1" source="BTvp2O8rXc9mUWwI-0S5-203" target="BTvp2O8rXc9mUWwI-0S5-177">
          <mxGeometry relative="1" as="geometry" />
        </mxCell>
        <mxCell id="BTvp2O8rXc9mUWwI-0S5-203" value="" style="dashed=0;outlineConnect=0;html=1;align=center;labelPosition=center;verticalLabelPosition=bottom;verticalAlign=top;shape=mxgraph.weblogos.mongodb" vertex="1" parent="1">
          <mxGeometry x="440" y="236.9" width="41.2" height="86.2" as="geometry" />
        </mxCell>
        <mxCell id="BTvp2O8rXc9mUWwI-0S5-204" value="chat" style="rounded=0;whiteSpace=wrap;html=1;" vertex="1" parent="1">
          <mxGeometry x="428.1" y="217" width="65" height="26" as="geometry" />
        </mxCell>
        <mxCell id="BTvp2O8rXc9mUWwI-0S5-209" value="" style="sketch=0;aspect=fixed;pointerEvents=1;shadow=0;dashed=0;html=1;strokeColor=none;labelPosition=center;verticalLabelPosition=bottom;verticalAlign=top;align=center;fillColor=#00188D;shape=mxgraph.azure.queue_generic" vertex="1" parent="1">
          <mxGeometry x="520" y="600" width="50" height="15" as="geometry" />
        </mxCell>
      </root>
    </mxGraphModel>
  </diagram>
</mxfile>
